<?xml version="1.0" encoding="iso-8859-1"?>
<!-- Generator: Adobe Illustrator 17.0.2, SVG Export Plug-In . SVG Version: 6.00 Build 0)  -->
<!DOCTYPE svg PUBLIC "-//W3C//DTD SVG 1.1//EN" "http://www.w3.org/Graphics/SVG/1.1/DTD/svg11.dtd">
<svg version="1.1" id="Capa_1" xmlns="http://www.w3.org/2000/svg" xmlns:xlink="http://www.w3.org/1999/xlink" x="0px" y="0px"
	 width="100px" height="100px" viewBox="0 0 100 100" style="enable-background:new 0 0 100 100;" xml:space="preserve">
<g>
	<path style="fill:#1D1D1B;" d="M83.824,88.674c0.557-0.037,1.021-0.21,1.409-0.46c1.381-0.097,2.716-1.026,2.768-2.805
		c0.407-14.017,1.432-25.078,2.191-39.078c0.062-1.138-0.433-1.925-1.154-2.373c-1.616,1.628-3.223,3.266-4.832,4.902
		c-0.692,11.978-1.533,21.725-1.953,34.048c-23.652,1.453-47.323-0.205-70.994-0.093c-0.439-21.392-0.444-42.786-0.032-64.179
		c14.157,0.311,27.106,0.593,41.057,0.655c1.97-1.681,3.919-3.385,5.845-5.117c-0.462-0.428-1.09-0.711-1.904-0.712
		c-16.438-0.021-31.41-0.366-47.843-0.73c-1.718-0.038-2.643,1.156-2.794,2.473C5.5,15.483,5.433,15.78,5.426,16.118
		c-0.467,22.399-0.467,44.8,0,67.199c0.013,0.626,0.196,1.139,0.474,1.557c-0.481,1.696,0.409,3.824,2.691,3.8
		C33.676,88.405,58.76,90.363,83.824,88.674z"/>
	<path style="fill:#1D1D1B;" d="M96.183,21.136c-4.548-5.303-9.638-10.392-15.128-15.127c-0.896-0.773-2.227-0.707-3.093,0.092
		c-0.169,0.102-0.31,0.211-0.439,0.341c-1.776,1.776-3.679,3.65-5.812,5.459l-0.287-0.244c-0.427-0.356-0.931-0.544-1.456-0.544
		c-1.077,0-2.08,0.786-2.325,1.788c-6.734,6.2-13.35,12.734-19.747,19.055c-3.117,3.08-6.234,6.16-9.376,9.213
		c-0.132,0.127-0.244,0.264-0.288,0.348c-0.282,0.3-0.455,0.683-0.515,1.138c-1.026,7.95-1.252,15.808-0.669,23.357
		c0.014,0.176,0.046,0.346,0.093,0.499c0.229,0.895,1.044,1.857,2.294,1.857c0.113,0,0.229-0.008,0.348-0.025
		c7.559-1.063,14.887-2.851,20.426-4.29c0.324-0.083,0.612-0.228,0.858-0.43c0.444-0.119,0.841-0.398,1.138-0.801
		c0.152-0.098,0.28-0.202,0.396-0.321c4.754-4.878,9.761-9.667,14.604-14.299c4.83-4.621,9.826-9.399,14.577-14.271
		c0.949-0.974,0.729-2.252,0.019-3.034c-0.099-0.159-0.207-0.296-0.328-0.418l-0.178-0.177c1.844-1.947,3.537-3.97,5.099-5.876
		c0.672-0.82,0.708-1.928,0.131-2.755C96.423,21.461,96.314,21.292,96.183,21.136z M41.604,47.81
		c4.24,4.649,8.965,8.943,14.066,12.786c-2.439,0.604-4.75,1.136-7.026,1.619c-2.551-2.513-4.918-4.613-7.23-6.416
		c-0.063-0.05-0.131-0.097-0.203-0.141C41.249,52.973,41.381,50.34,41.604,47.81z M75.111,14.833
		c1.626-1.391,3.16-2.864,4.489-4.177c4.336,3.852,8.451,7.985,12.245,12.297c-1.37,1.64-2.565,2.994-3.712,4.205
		C84.293,23.351,79.793,18.968,75.111,14.833z M69.666,19.959c-4.181,4.117-8.504,8.374-12.436,12.887
		c-0.603,0.691-0.736,1.599-0.359,2.427c0.384,0.844,1.205,1.411,2.042,1.411c0.399,0,0.986-0.128,1.516-0.736
		c3.906-4.485,8.217-8.729,12.385-12.833c0.77-0.758,1.539-1.516,2.307-2.275c0.42,0.387,0.836,0.777,1.252,1.167
		c-4.509,4.334-8.778,9.016-12.911,13.547c-2.71,2.972-5.513,6.045-8.352,8.986c-0.634,0.656-0.805,1.535-0.457,2.352
		c0.365,0.862,1.233,1.464,2.109,1.464c0.562,0,1.084-0.234,1.511-0.677c2.848-2.949,5.653-6.026,8.367-9.002
		c4.155-4.556,8.448-9.264,12.975-13.605c0.726,0.697,1.445,1.399,2.165,2.101l0.023,0.023c-1.795,1.773-3.601,3.537-5.406,5.3
		c-3.702,3.614-7.53,7.352-11.203,11.126c-0.635,0.653-0.809,1.53-0.464,2.346c0.365,0.864,1.235,1.468,2.115,1.468
		c0.561,0,1.083-0.232,1.511-0.672c3.667-3.769,7.494-7.505,11.195-11.119c1.814-1.772,3.629-3.544,5.434-5.327
		c0.691,0.683,1.383,1.365,2.071,2.051c-4.255,4.301-8.692,8.55-12.988,12.663c-4.555,4.361-9.261,8.868-13.763,13.449
		c-6.245-4.456-12.009-9.708-17.14-15.622c2.619-2.558,5.224-5.13,7.828-7.703c6.255-6.178,12.719-12.562,19.288-18.629
		c0.51,0.439,1.017,0.881,1.521,1.325C71.092,18.555,70.379,19.257,69.666,19.959z M43.291,63.257
		c-0.64,0.114-1.279,0.225-1.921,0.33c-0.038-0.713-0.068-1.427-0.094-2.141C41.941,62.024,42.615,62.63,43.291,63.257z"/>
</g>
</svg>
